<?xml version="1.0" encoding="UTF-8" standalone="no"?>
<svg width="32px" height="32px" viewBox="0 0 32 32" version="1.1" xmlns="http://www.w3.org/2000/svg" xmlns:xlink="http://www.w3.org/1999/xlink">
    <!-- Generator: Sketch 41.2 (35397) - http://www.bohemiancoding.com/sketch -->
    <title>calendar</title>
    <desc>Created with Sketch.</desc>
    <defs></defs>
    <g id="Page-2" stroke="none" stroke-width="1" fill="none" fill-rule="evenodd">
        <g id="calendar" fill="#333333">
            <g id="Group-14-Copy-3" transform="translate(3.000000, 3.000000)">
                <path d="M22.8668917,0 L2.96540833,0 C1.23460552,0 0,1.25553635 0,2.99509167 L0,22.9611417 C0,24.7067609 1.2402778,26 2.96540833,26 L22.8668917,26 C24.6146717,26 26,24.684713 26,22.9610333 L26,2.99509167 C26,1.27643439 24.621513,0 22.8668917,0 Z M22.8668917,1.08333333 C24.0410248,1.08333333 24.9166667,1.89414937 24.9166667,2.99509167 L24.9166667,22.9610333 C24.9166667,24.0734737 24.0285722,24.9166667 22.8668917,24.9166667 L2.96540833,24.9166667 C1.84895489,24.9166667 1.08333333,24.1183522 1.08333333,22.9611417 L1.08333333,2.99509167 C1.08333333,1.84980618 1.83702844,1.08333333 2.96540833,1.08333333 L22.8668917,1.08333333 Z" id="Shape-Copy-6"></path>
                <polygon id="Shape-Copy-7" points="0.541666667 8.66666667 25.4583333 8.66666667 25.4583333 7.58333333 0.541666667 7.58333333"></polygon>
                <polygon id="Shape-Copy-8" points="4.33333333 8.125 4.33333333 25.5101167 5.41666667 25.5101167 5.41666667 8.125"></polygon>
                <polygon id="Shape-Copy-9" points="9.75 8.125 9.75 25.5101167 10.8333333 25.5101167 10.8333333 8.125"></polygon>
                <polygon id="Shape-Copy-10" points="15.1666667 8.125 15.1666667 25.5101167 16.25 25.5101167 16.25 8.125"></polygon>
                <polygon id="Shape-Copy-11" points="20.5833333 8.125 20.5833333 25.5101167 21.6666667 25.5101167 21.6666667 8.125"></polygon>
                <polygon id="Shape-Copy-12" points="0.541666667 21.6666667 25.4583333 21.6666667 25.4583333 20.5833333 0.541666667 20.5833333"></polygon>
                <polygon id="Shape-Copy-13" points="0.541666667 17.3333333 25.4583333 17.3333333 25.4583333 16.25 0.541666667 16.25"></polygon>
                <polygon id="Shape-Copy-14" points="0.541666667 13 25.4583333 13 25.4583333 11.9166667 0.541666667 11.9166667"></polygon>
                <path d="M8.21405,5.32393333 C9.01111656,5.32393333 9.65726667,4.67778322 9.65726667,3.88071667 C9.65726667,3.08365011 9.01111656,2.4375 8.21405,2.4375 C7.41698344,2.4375 6.77083333,3.08365011 6.77083333,3.88071667 C6.77083333,4.67778322 7.41698344,5.32393333 8.21405,5.32393333 Z M8.21405,4.2406 C8.01529192,4.2406 7.85416667,4.07947474 7.85416667,3.88071667 C7.85416667,3.68195859 8.01529192,3.52083333 8.21405,3.52083333 C8.41280808,3.52083333 8.57393333,3.68195859 8.57393333,3.88071667 C8.57393333,4.07947474 8.41280808,4.2406 8.21405,4.2406 Z" id="Oval-Copy-2"></path>
                <path d="M17.6932167,5.32393333 C18.4902832,5.32393333 19.1364333,4.67778322 19.1364333,3.88071667 C19.1364333,3.08365011 18.4902832,2.4375 17.6932167,2.4375 C16.8961501,2.4375 16.25,3.08365011 16.25,3.88071667 C16.25,4.67778322 16.8961501,5.32393333 17.6932167,5.32393333 Z M17.6932167,4.2406 C17.4944586,4.2406 17.3333333,4.07947474 17.3333333,3.88071667 C17.3333333,3.68195859 17.4944586,3.52083333 17.6932167,3.52083333 C17.8919747,3.52083333 18.0531,3.68195859 18.0531,3.88071667 C18.0531,4.07947474 17.8919747,4.2406 17.6932167,4.2406 Z" id="Oval-Copy-3"></path>
            </g>
        </g>
    </g>
</svg>