<?xml version="1.0" encoding="UTF-8"?>
<svg width="100px" height="100px" viewBox="0 0 100 100" version="1.1" xmlns="http://www.w3.org/2000/svg" xmlns:xlink="http://www.w3.org/1999/xlink">
    <!-- Generator: Sketch 42 (36781) - http://www.bohemiancoding.com/sketch -->
    <title>chat-button</title>
    <desc>Created with Sketch.</desc>
    <defs></defs>
    <g id="Page-2" stroke="none" stroke-width="1" fill="none" fill-rule="evenodd">
        <g id="chat-button" fill-rule="nonzero" fill="#FFFFFF">
            <g id="Group-21" transform="translate(17.000000, 23.000000)">
                <path d="M26.0309964,33.846468 C26.3537059,33.5212002 26.7929323,33.33825 27.251125,33.33825 L32.088925,33.33825 C39.5670912,33.33825 45.54495,26.9031116 45.54495,18.557275 C45.54495,10.2107894 39.5672527,3.77575 32.088925,3.77575 L16.730725,3.77575 C9.41216363,3.77575 3.64265,10.3915128 3.64265,18.905975 C3.64265,26.6850012 8.08431739,32.5753451 15.0926829,33.794896 C16.0837898,33.9673621 16.540281,34.7560844 16.5165,35.5317817 L16.5165,43.4363912 L26.0309964,33.846468 Z M0.20515,18.905975 C0.20515,8.5896815 7.40110732,0.33825 16.730725,0.33825 L32.088925,0.33825 C41.5246629,0.33825 48.98245,8.36661794 48.98245,18.557275 C48.98245,28.7472912 41.5244918,36.77575 32.088925,36.77575 L27.9670329,36.77575 L16.0178786,48.819632 C14.9371039,49.9089747 13.079,49.1436167 13.079,47.6091 L13.079,36.8750408 C5.16762514,34.8366157 0.20515,27.7641066 0.20515,18.905975 Z" id="Shape"></path>
                <path d="M51.3131772,54.2042067 C52.3960179,55.2866609 54.24705,54.5197448 54.24705,52.98865 L54.24705,46.9768857 C60.0259184,45.8447593 64.728675,40.0580955 64.728675,33.45705 C64.728675,25.9348365 59.2331518,19.882775 52.28355,19.882775 C51.3343106,19.882775 50.5648,20.6522856 50.5648,21.601525 C50.5648,22.5507644 51.3343106,23.320275 52.28355,23.320275 C57.2567323,23.320275 61.291175,27.7632905 61.291175,33.45705 C61.291175,38.8785642 57.0723914,43.5611682 52.4637171,43.7344638 C51.5402604,43.7691877 50.80955,44.5278906 50.80955,45.452 L50.80955,48.8402677 L46.8092978,44.8414433 C46.4869873,44.5192479 46.0499095,44.33825 45.594175,44.33825 L41.426275,44.33825 C38.7083941,44.33825 36.0261782,42.6628211 34.2257462,39.9588867 C33.6996462,39.1687764 32.632647,38.9547538 31.8425367,39.4808538 C31.0524264,40.0069538 30.8384038,41.073953 31.3645038,41.8640633 C33.7614642,45.4638792 37.4625682,47.77575 41.426275,47.77575 L44.8824251,47.77575 L51.3131772,54.2042067 Z" id="Shape"></path>
                <path d="M13.450525,20.28125 L35.010525,20.28125 C35.9597644,20.28125 36.729275,19.5117394 36.729275,18.5625 C36.729275,17.6132606 35.9597644,16.84375 35.010525,16.84375 L13.450525,16.84375 C12.5012856,16.84375 11.731775,17.6132606 11.731775,18.5625 C11.731775,19.5117394 12.5012856,20.28125 13.450525,20.28125 Z" id="Shape"></path>
                <path d="M13.450525,14.78125 L35.010525,14.78125 C35.9597644,14.78125 36.729275,14.0117394 36.729275,13.0625 C36.729275,12.1132606 35.9597644,11.34375 35.010525,11.34375 L13.450525,11.34375 C12.5012856,11.34375 11.731775,12.1132606 11.731775,13.0625 C11.731775,14.0117394 12.5012856,14.78125 13.450525,14.78125 Z" id="Shape"></path>
                <path d="M13.450525,25.78125 L24.230525,25.78125 C25.1797644,25.78125 25.949275,25.0117394 25.949275,24.0625 C25.949275,23.1132606 25.1797644,22.34375 24.230525,22.34375 L13.450525,22.34375 C12.5012856,22.34375 11.731775,23.1132606 11.731775,24.0625 C11.731775,25.0117394 12.5012856,25.78125 13.450525,25.78125 Z" id="Shape"></path>
            </g>
        </g>
    </g>
</svg>