<?xml version="1.0" encoding="UTF-8" standalone="no"?>
<svg width="32px" height="32px" viewBox="0 0 32 32" version="1.1" xmlns="http://www.w3.org/2000/svg" xmlns:xlink="http://www.w3.org/1999/xlink">
    <!-- Generator: Sketch 41.2 (35397) - http://www.bohemiancoding.com/sketch -->
    <title>clock</title>
    <desc>Created with Sketch.</desc>
    <defs></defs>
    <g id="Page-2" stroke="none" stroke-width="1" fill="none" fill-rule="evenodd">
        <g id="clock" fill="#333333">
            <g id="Group-15" transform="translate(2.000000, 2.000000)">
                <path d="M13.8526316,3.83157895 C13.8526316,3.50602162 13.5887152,3.24210526 13.2631579,3.24210526 C12.9376006,3.24210526 12.6736842,3.50602162 12.6736842,3.83157895 L12.6736842,14.3816253 C12.6736842,14.7071826 12.9376006,14.9710989 13.2631579,14.9710989 L20.2638653,14.9710989 C20.5894226,14.9710989 20.8533389,14.7071826 20.8533389,14.3816253 C20.8533389,14.0560679 20.5894226,13.7921516 20.2638653,13.7921516 L13.8526316,13.7921516 L13.8526316,3.83157895 Z" id="Shape-Copy-16"></path>
                <path d="M13.8548716,27.7097432 C21.5067059,27.7097432 27.7097432,21.5067059 27.7097432,13.8548716 C27.7097432,6.2030373 21.5067059,0 13.8548716,0 C6.2030373,0 0,6.2030373 0,13.8548716 C0,21.5067059 6.2030373,27.7097432 13.8548716,27.7097432 Z M13.8548716,26.5307958 C6.85415195,26.5307958 1.17894737,20.8555912 1.17894737,13.8548716 C1.17894737,6.85415195 6.85415195,1.17894737 13.8548716,1.17894737 C20.8555912,1.17894737 26.5307958,6.85415195 26.5307958,13.8548716 C26.5307958,20.8555912 20.8555912,26.5307958 13.8548716,26.5307958 Z" id="Oval-Copy-5"></path>
            </g>
        </g>
    </g>
</svg>