<?xml version="1.0" encoding="UTF-8" standalone="no"?>
<svg width="32px" height="32px" viewBox="0 0 32 32" version="1.1" xmlns="http://www.w3.org/2000/svg" xmlns:xlink="http://www.w3.org/1999/xlink">
    <!-- Generator: Sketch 41.2 (35397) - http://www.bohemiancoding.com/sketch -->
    <title>info</title>
    <desc>Created with Sketch.</desc>
    <defs></defs>
    <g id="Page-2" stroke="none" stroke-width="1" fill="none" fill-rule="evenodd">
        <g id="info" fill="#333333">
            <g id="Group-16" transform="translate(2.000000, 2.000000)">
                <path d="M13.9074833,0 C6.23800056,0 0,6.23800056 0,13.9074833 C0,21.5771123 6.23826337,27.8160167 13.9074833,27.8160167 C21.5767033,27.8160167 27.8149667,21.5771123 27.8149667,13.9074833 C27.8149667,6.23804004 21.5768889,0 13.9074833,0 Z M13.9074833,1.16666667 C20.9325583,1.16666667 26.6483,6.88237383 26.6483,13.9074833 C26.6483,20.9328069 20.9323442,26.64935 13.9074833,26.64935 C6.88262242,26.64935 1.16666667,20.9328069 1.16666667,13.9074833 C1.16666667,6.88233277 6.88233277,1.16666667 13.9074833,1.16666667 Z" id="Shape-Copy-17"></path>
                <path d="M13.9735167,10.4470333 C15.8918869,10.4470333 17.4470333,8.89188695 17.4470333,6.97351667 C17.4470333,5.05514638 15.8918869,3.5 13.9735167,3.5 C12.0551464,3.5 10.5,5.05514638 10.5,6.97351667 C10.5,8.89188695 12.0551464,10.4470333 13.9735167,10.4470333 Z M13.9735167,9.28036667 C12.6994786,9.28036667 11.6666667,8.24755474 11.6666667,6.97351667 C11.6666667,5.69947859 12.6994786,4.66666667 13.9735167,4.66666667 C15.2475547,4.66666667 16.2803667,5.69947859 16.2803667,6.97351667 C16.2803667,8.24755474 15.2475547,9.28036667 13.9735167,9.28036667 Z" id="Oval-Copy-6"></path>
                <path d="M16.2882529,21.0865667 L17.9620695,21.0865667 C18.1763065,21.0865468 18.3343456,21.2955934 18.3377203,21.6413084 C18.3410817,21.9856781 18.1918893,22.18475 17.9620695,22.18475 L10.8773695,22.18475 C10.6455971,22.18475 10.4964083,21.9859544 10.5000515,21.6417743 C10.5037104,21.2961023 10.6625263,21.08645 10.8773695,21.08645 L12.8611695,21.08645 L12.8611695,13.9316333 L10.8773695,13.9316333 C10.6492459,13.9316333 10.4980579,13.7305557 10.5001608,13.3860438 C10.5022689,13.0406717 10.6590079,12.8333333 10.8773695,12.8333333 L16.2882529,12.8333333 L16.2882529,21.0865667 Z M11.6945029,20.5031167 L12.2778362,19.9197833 L11.6945029,19.9197833 L11.6945029,20.5031167 Z M17.4549195,12.6004667 C17.4549195,12.0865321 17.039685,11.6666667 16.5249695,11.6666667 L10.8773695,11.6666667 C9.93326938,11.6666667 9.33917023,12.4525559 9.33351583,13.3789228 C9.3278282,14.3107345 9.91998974,15.0983 10.8773695,15.0983 L11.6945029,15.0983 L11.6945029,19.9197833 L10.8773695,19.9197833 C9.93810239,19.9197833 9.34323462,20.7050662 9.33345014,21.6294257 C9.32356572,22.5632272 9.91507324,23.3514167 10.8773695,23.3514167 L17.9620695,23.3514167 C18.9227274,23.3514167 19.5134414,22.5632093 19.5043313,21.6299208 C19.4953061,20.7053207 18.9014628,19.9198128 17.9620154,19.9199 L17.4549195,19.9199 L17.4549195,12.6004667 Z" id="Shape-Copy-18"></path>
            </g>
        </g>
    </g>
</svg>