<?xml version="1.0" encoding="UTF-8"?>
<svg width="32px" height="32px" viewBox="0 0 32 32" version="1.1" xmlns="http://www.w3.org/2000/svg" xmlns:xlink="http://www.w3.org/1999/xlink">
    <!-- Generator: Sketch 42 (36781) - http://www.bohemiancoding.com/sketch -->
    <title>play</title>
    <desc>Created with Sketch.</desc>
    <defs></defs>
    <g id="Page-2" stroke="none" stroke-width="1" fill="none" fill-rule="evenodd">
        <g id="play" fill-rule="nonzero" fill="#333333">
            <g id="Group-19" transform="translate(2.000000, 2.000000)">
                <path d="M14.0358167,27.8654833 C6.3797325,27.8654833 0.17325,21.6590008 0.17325,14.0029167 C0.17325,6.3468325 6.3797325,0.14035 14.0358167,0.14035 C21.6919008,0.14035 27.8983833,6.3468325 27.8983833,14.0029167 C27.8983833,21.6590008 21.6919008,27.8654833 14.0358167,27.8654833 Z M14.0358167,26.6988167 C21.0475686,26.6988167 26.7317167,21.0146686 26.7317167,14.0029167 C26.7317167,6.99116471 21.0475686,1.30701667 14.0358167,1.30701667 C7.02406471,1.30701667 1.33991667,6.99116471 1.33991667,14.0029167 C1.33991667,21.0146686 7.02406471,26.6988167 14.0358167,26.6988167 Z" id="Oval"></path>
                <path d="M19.2520325,12.8044553 C20.0267703,13.4092677 20.0268957,14.5811588 19.2522197,15.185923 L12.9452735,20.1101477 C11.9534987,20.8846748 10.5050167,20.1779911 10.5050167,18.9196207 L10.5046667,9.07235 C10.5046667,7.81415047 11.9527462,7.10734723 12.9446825,7.88147193 L19.2520325,12.8044553 Z M12.2268787,8.80118318 C12.0010379,8.62493301 11.6713333,8.78586081 11.6713333,9.07232927 L11.6716833,18.9196 C11.6716833,19.2060944 12.0014232,19.3669675 12.227247,19.1906103 L18.534274,14.2663225 C18.7105924,14.1286765 18.7105694,13.8618466 18.5341739,13.7241238 L12.2268787,8.80118318 Z" id="Shape"></path>
            </g>
        </g>
    </g>
</svg>