<?xml version="1.0" encoding="UTF-8" standalone="no"?>
<svg width="32px" height="32px" viewBox="0 0 32 32" version="1.1" xmlns="http://www.w3.org/2000/svg" xmlns:xlink="http://www.w3.org/1999/xlink">
    <!-- Generator: Sketch 41.2 (35397) - http://www.bohemiancoding.com/sketch -->
    <title>ticket</title>
    <desc>Created with Sketch.</desc>
    <defs></defs>
    <g id="Page-2" stroke="none" stroke-width="1" fill="none" fill-rule="evenodd">
        <g id="ticket" fill="#333333">
            <g id="Group-18" transform="translate(2.000000, 2.000000)">
                <path d="M13.8599411,27.7198821 C21.5145751,27.7198821 27.7198821,21.5145751 27.7198821,13.8599411 C27.7198821,6.20530698 21.5145751,0 13.8599411,0 C6.20530698,0 0,6.20530698 0,13.8599411 C0,21.5145751 6.20530698,27.7198821 13.8599411,27.7198821 Z M13.8599411,26.5409347 C6.85642163,26.5409347 1.17894737,20.8634605 1.17894737,13.8599411 C1.17894737,6.85642163 6.85642163,1.17894737 13.8599411,1.17894737 C20.8634605,1.17894737 26.5409347,6.85642163 26.5409347,13.8599411 C26.5409347,20.8634605 20.8634605,26.5409347 13.8599411,26.5409347 Z" id="Oval-Copy-7"></path>
                <path d="M9.43157895,15.0315789 L16.1539368,15.0315789 C16.4794942,15.0315789 16.7434105,14.7676626 16.7434105,14.4421053 C16.7434105,14.1165479 16.4794942,13.8526316 16.1539368,13.8526316 L9.43157895,13.8526316 C9.10602162,13.8526316 8.84210526,14.1165479 8.84210526,14.4421053 C8.84210526,14.7676626 9.10602162,15.0315789 9.43157895,15.0315789 Z" id="Shape-Copy-20"></path>
                <path d="M9.06255421,20.5018251 C9.05858021,20.5052153 9.81508035,21.4094693 9.81508035,21.4094693 C9.85013053,21.3800432 9.91227995,21.3318518 10.0035726,21.2678139 C10.1713291,21.1501401 10.3648106,21.0316024 10.5799096,20.9208514 C11.7678896,20.3091794 13.0150851,20.2001326 14.2272903,20.8881643 C15.8640959,21.8171936 17.2261196,21.7209824 18.2188165,20.9569006 C18.511463,20.7316497 18.7057678,20.501239 18.8132136,20.3266285 C18.9838296,20.0493601 18.8973706,19.6862781 18.6201022,19.5156622 C18.3428337,19.3450462 17.9797517,19.4315052 17.8091358,19.7087736 C17.7713369,19.7702007 17.6670668,19.8938464 17.4997224,20.0226519 C16.8826638,20.4976038 16.0332725,20.5576034 14.8092402,19.8628589 C13.6409884,19.1997745 12.4488012,19.0951174 11.304756,19.3861317 C10.8751861,19.4954027 10.4524037,19.6604585 10.0402244,19.8726831 C9.59495725,20.1019441 9.2617415,20.333683 9.06255421,20.5018251 C8.45286904,21.02403 9.21447394,21.918155 9.81254912,21.4116254 C10.4819637,20.8426098 10.9702262,20.1647475 11.304756,19.3861317 C11.605889,18.6852468 11.7824522,17.9027212 11.8487717,17.0492722 C11.9394466,15.8823996 11.8293186,14.7096178 11.56763,13.2936817 C11.5390419,13.1389979 11.5094878,12.9853221 11.4730106,12.8001687 C11.4619142,12.7438449 11.4032731,12.4483318 11.3881295,12.3710259 C11.2076906,11.4502221 11.1988629,10.6019315 11.3824642,9.83474721 C11.8187267,8.01165215 12.980651,7.07368421 14.8246737,7.07368421 C15.8192639,7.07368421 16.8385481,7.64088852 17.6268492,8.55221038 C17.8398333,8.79843247 18.2120936,8.82537711 18.4583156,8.61239294 C18.7045377,8.39940876 18.7314824,8.02714854 18.5184982,7.78092646 C17.5238438,6.63104812 16.2006689,5.89473684 14.8246737,5.89473684 C12.4296908,5.89473684 10.7978348,7.21205903 10.235891,9.56036297 C10.0096816,10.5055862 10.0202518,11.5213131 10.2311787,12.5977015 C10.2466537,12.6766988 10.3054667,12.9730783 10.3162975,13.0280538 C10.3519531,13.2090372 10.3806831,13.358428 10.4083159,13.5079423 C10.6529939,14.8318379 10.7545451,15.9132839 10.6733678,16.9579344 C10.5561003,18.4670209 10.0507642,19.6587818 9.06255421,20.5018251 Z" id="Shape-Copy-21"></path>
            </g>
        </g>
    </g>
</svg>