<?xml version="1.0" encoding="UTF-8" standalone="no"?>
<svg width="32px" height="32px" viewBox="0 0 32 32" version="1.1" xmlns="http://www.w3.org/2000/svg" xmlns:xlink="http://www.w3.org/1999/xlink">
    <!-- Generator: Sketch 41.2 (35397) - http://www.bohemiancoding.com/sketch -->
    <title>ticket</title>
    <desc>Created with Sketch.</desc>
    <defs></defs>
    <g id="Page-2" stroke="none" stroke-width="1" fill="none" fill-rule="evenodd">
        <g id="ticket" fill="#333333">
            <g id="Group-17" transform="translate(8.000000, 3.000000)">
                <g id="Group-Copy-2" transform="translate(0.000000, 6.500000)">
                    <path d="M0.811958333,1.14096667 L1.89529167,1.14096667 C2.19444591,1.14096667 2.43695833,0.898454239 2.43695833,0.5993 C2.43695833,0.300145761 2.19444591,0.0576333333 1.89529167,0.0576333333 L0.811958333,0.0576333333 C0.512804094,0.0576333333 0.270291667,0.300145761 0.270291667,0.5993 C0.270291667,0.898454239 0.512804094,1.14096667 0.811958333,1.14096667 Z" id="Shape"></path>
                    <path d="M7.3125,1.08333333 L8.39583333,1.08333333 C8.69498757,1.08333333 8.9375,0.840820906 8.9375,0.541666667 C8.9375,0.242512427 8.69498757,0 8.39583333,0 L7.3125,0 C7.01334576,0 6.77083333,0.242512427 6.77083333,0.541666667 C6.77083333,0.840820906 7.01334576,1.08333333 7.3125,1.08333333 Z" id="Shape"></path>
                    <path d="M10.5625,1.08333333 L11.6458333,1.08333333 C11.9449876,1.08333333 12.1875,0.840820906 12.1875,0.541666667 C12.1875,0.242512427 11.9449876,0 11.6458333,0 L10.5625,0 C10.2633458,0 10.0208333,0.242512427 10.0208333,0.541666667 C10.0208333,0.840820906 10.2633458,1.08333333 10.5625,1.08333333 Z" id="Shape-Copy"></path>
                    <path d="M4.06304167,1.08333333 L5.146375,1.08333333 C5.44552924,1.08333333 5.68804167,0.840820906 5.68804167,0.541666667 C5.68804167,0.242512427 5.44552924,0 5.146375,0 L4.06304167,0 C3.76388743,0 3.521375,0.242512427 3.521375,0.541666667 C3.521375,0.840820906 3.76388743,1.08333333 4.06304167,1.08333333 Z" id="Shape-Copy-2"></path>
                    <path d="M13.8119583,1.14096667 L14.8952917,1.14096667 C15.1944459,1.14096667 15.4369583,0.898454239 15.4369583,0.5993 C15.4369583,0.300145761 15.1944459,0.0576333333 14.8952917,0.0576333333 L13.8119583,0.0576333333 C13.5128041,0.0576333333 13.2702917,0.300145761 13.2702917,0.5993 C13.2702917,0.898454239 13.5128041,1.14096667 13.8119583,1.14096667 Z" id="Shape"></path>
                </g>
                <path d="M13.5655,0 L2.14261667,0 L2.14261667,0.541666667 C2.14261667,1.4034563 1.52411834,2.152475 0.8125,2.152475 L0.270833333,2.152475 L0.270833333,23.8474167 L0.8125,23.8474167 C1.52411834,23.8474167 2.14261667,24.5964354 2.14261667,25.458225 L2.14261667,25.9998917 L13.5655,25.9998917 L13.5655,25.458225 C13.5655,24.5964695 14.1840769,23.8474167 14.895725,23.8474167 L15.4373917,23.8474167 L15.4373917,2.152475 L14.895725,2.152475 C14.1841432,2.152475 13.5655,1.40337234 13.5655,0.541666667 L13.5655,0 Z M14.3540583,3.16648054 L14.3540583,22.8334028 C13.4289594,23.0746586 12.7242786,23.917521 12.5335262,24.9165583 L3.17459625,24.9165583 C2.98386288,23.9175137 2.27924234,23.0746597 1.35416667,22.8334039 L1.35416667,3.1664878 C2.27924234,2.92523201 2.98386288,2.08237795 3.17459625,1.08333333 L12.533532,1.08333333 C12.7242981,2.08234003 13.4290039,2.92521068 14.3540583,3.16648054 Z" id="Shape-Copy-19"></path>
            </g>
        </g>
    </g>
</svg>