<?xml version="1.0" encoding="UTF-8" standalone="no"?>
<svg width="30px" height="30px" viewBox="0 0 30 30" version="1.1" xmlns="http://www.w3.org/2000/svg" xmlns:xlink="http://www.w3.org/1999/xlink">
    <g id="facebook-icon" class="facebook-icon" fill="#262425">
        <path d="M14.9997579,1 C7.26797386,1 1,7.26821593 1,15 C1,22.731542 7.26797386,29.0004841 14.9997579,29.0004841 C22.731542,29.0004841 29,22.7317841 29,15 C28.9997579,7.26821593 22.731542,1 14.9997579,1 L14.9997579,1 Z M19.7809247,9.95545873 C19.7809247,10.0890825 19.6727185,10.1975309 19.5388526,10.1975309 L16.130719,10.1975309 L16.130719,12.0292907 L19.5386105,12.0292907 C19.6724764,12.0292907 19.7806826,12.137739 19.7806826,12.2713629 L19.7806826,15.6790123 C19.7806826,15.8128782 19.6724764,15.9210845 19.5386105,15.9210845 L16.3727911,15.9210845 L16.3727911,23.399177 C16.3727911,23.5330428 16.2645848,23.6412491 16.130719,23.6412491 L12.9099492,23.6412491 C12.7760833,23.6412491 12.667877,23.5330428 12.667877,23.399177 L12.667877,15.9213266 L10.4609053,15.9213266 C10.3270395,15.9213266 10.2188332,15.8131203 10.2188332,15.6792544 L10.2188332,12.2716049 C10.2188332,12.1379811 10.3270395,12.0295328 10.4609053,12.0295328 L12.667877,12.0295328 L12.667877,10.647785 C12.667877,10.6279351 12.6702977,10.6088114 12.674655,10.5904139 C12.6765916,8.62212539 13.0975551,6.37037037 16.322198,6.36020334 C16.3292181,6.3597192 16.3367223,6.35923505 16.3439845,6.35923505 L19.5386105,6.35923505 C19.6724764,6.35923505 19.7806826,6.46768337 19.7806826,6.60130719 L19.7806826,9.95545873 L19.7809247,9.95545873 Z"></path>
    </g>
</svg>