<?xml version="1.0" encoding="UTF-8" standalone="no"?>
<svg width="28px" height="28px" viewBox="0 0 28 28" version="1.1" xmlns="http://www.w3.org/2000/svg" xmlns:xlink="http://www.w3.org/1999/xlink">
    <!-- Generator: Sketch 39.1 (31720) - http://www.bohemiancoding.com/sketch -->
    <title>instagram</title>
    <desc>Created with Sketch.</desc>
    <defs></defs>
    <g id="Page-1" stroke="none" stroke-width="1" fill="none" fill-rule="evenodd">
        <path d="M14,28 C21.7319865,28 28,21.7319865 28,14 C28,6.2680135 21.7319865,0 14,0 C6.2680135,0 0,6.2680135 0,14 C0,21.7319865 6.2680135,28 14,28 L14,28 L14,28 L14,28 L14,28 Z M14,7.44352381 C16.1354286,7.44352381 16.3883492,7.45165079 17.2316508,7.49012698 C18.0113968,7.52571429 18.4348571,7.656 18.7166984,7.76549206 C19.0899683,7.91057143 19.3564127,8.08390476 19.636254,8.36374603 C19.9160952,8.6435873 20.0894286,8.91003175 20.2344762,9.28330159 C20.344,9.56514286 20.4742857,9.98860317 20.509873,10.7683175 C20.5483492,11.6116508 20.5564762,11.8645714 20.5564762,14 C20.5564762,16.1354286 20.5483492,16.3883492 20.509873,17.2316508 C20.4742857,18.0113968 20.344,18.4348571 20.2344762,18.7166984 C20.0894286,19.0899683 19.9160952,19.3564127 19.636254,19.636254 C19.3564127,19.9160952 19.0899683,20.0894286 18.7166984,20.2344762 C18.4348571,20.344 18.0113968,20.4742857 17.2316508,20.509873 C16.3884762,20.5483492 16.1355556,20.5564762 14,20.5564762 C11.8644444,20.5564762 11.6115238,20.5483492 10.7683492,20.509873 C9.98860317,20.4742857 9.56514286,20.344 9.28333333,20.2344762 C8.91003175,20.0894286 8.6435873,19.9160952 8.36374603,19.636254 C8.08390476,19.3564127 7.91057143,19.0899683 7.76552381,18.7166984 C7.656,18.4348571 7.52571429,18.0113968 7.49012698,17.2316825 C7.45165079,16.3883492 7.44352381,16.1354286 7.44352381,14 C7.44352381,11.8645714 7.45165079,11.6116508 7.49012698,10.7683492 C7.52571429,9.98860317 7.656,9.56514286 7.76552381,9.28330159 C7.91057143,8.91003175 8.08390476,8.6435873 8.36374603,8.36374603 C8.6435873,8.08390476 8.91003175,7.91057143 9.28333333,7.76549206 C9.56514286,7.656 9.98860317,7.52571429 10.7683175,7.49012698 C11.6116508,7.45165079 11.8645714,7.44352381 14,7.44352381 L14,7.44352381 L14,7.44352381 L14,7.44352381 L14,7.44352381 Z M14,6.00250794 C11.828,6.00250794 11.5556825,6.01171429 10.7026667,6.05063492 C9.85139683,6.08949206 9.27006349,6.22466667 8.76133333,6.42238095 C8.23542857,6.6267619 7.78942857,6.90022222 7.3448254,7.3448254 C6.90022222,7.78942857 6.6267619,8.23542857 6.42238095,8.76133333 C6.22466667,9.27006349 6.08949206,9.85139683 6.05063492,10.7026667 C6.01171429,11.5556508 6.00253968,11.828 6.00253968,14 C6.00253968,16.172 6.01171429,16.4443492 6.05063492,17.2973333 C6.08949206,18.1486032 6.22466667,18.7299365 6.42238095,19.2386667 C6.6267619,19.7645397 6.90022222,20.2105714 7.3448254,20.6551746 C7.78942857,21.0997778 8.23542857,21.3732381 8.76133333,21.577619 C9.27006349,21.7753333 9.85139683,21.9105079 10.7026667,21.9493651 C11.5556825,21.9882857 11.828,21.9974603 14,21.9974603 C16.172,21.9974603 16.4443492,21.9882857 17.2973333,21.9493651 C18.1486032,21.9105079 18.7299365,21.7753333 19.2386667,21.577619 C19.7645714,21.3732381 20.2105714,21.0997778 20.6551746,20.6551746 C21.0997778,20.2105714 21.3732381,19.7645714 21.577619,19.2386667 C21.7753333,18.7299365 21.9105079,18.1486032 21.9493651,17.2973333 C21.9882857,16.4443492 21.9974921,16.172 21.9974921,14 C21.9974921,11.828 21.9882857,11.5556508 21.9493651,10.7026667 C21.9105079,9.85139683 21.7753333,9.27006349 21.577619,8.76133333 C21.3732381,8.23542857 21.0997778,7.78942857 20.6551746,7.3448254 C20.2105714,6.90022222 19.7645714,6.6267619 19.2386667,6.42238095 C18.7299365,6.22466667 18.1486032,6.08949206 17.2973333,6.05063492 C16.4443492,6.01171429 16.172,6.00250794 14,6.00250794 L14,6.00250794 L14,6.00250794 L14,6.00250794 L14,6.00250794 Z M14,9.8931746 C11.731873,9.8931746 9.8931746,11.731873 9.8931746,14 C9.8931746,16.268127 11.731873,18.1068254 14,18.1068254 C16.268127,18.1068254 18.1068254,16.268127 18.1068254,14 C18.1068254,11.731873 16.268127,9.8931746 14,9.8931746 L14,9.8931746 L14,9.8931746 L14,9.8931746 L14,9.8931746 Z M14,16.6658413 C12.5277143,16.6658413 11.3341587,15.4722857 11.3341587,14 C11.3341587,12.5277143 12.5277143,11.3341587 14,11.3341587 C15.4722857,11.3341587 16.6658413,12.5277143 16.6658413,14 C16.6658413,15.4722857 15.4722857,16.6658413 14,16.6658413 L14,16.6658413 L14,16.6658413 L14,16.6658413 L14,16.6658413 Z M19.2287619,9.73092063 C19.2287619,10.2609524 18.7991111,10.6906349 18.2690794,10.6906349 C17.7390476,10.6906349 17.3093651,10.2609524 17.3093651,9.73092063 C17.3093651,9.20088889 17.7390476,8.7712381 18.2690794,8.7712381 C18.7991111,8.7712381 19.2287619,9.20088889 19.2287619,9.73092063 L19.2287619,9.73092063 L19.2287619,9.73092063 L19.2287619,9.73092063 L19.2287619,9.73092063 Z" id="instagram" fill="#262425"></path>
    </g>
</svg>