<?xml version="1.0" encoding="UTF-8" standalone="no"?>
<svg width="30px" height="30px" viewBox="0 0 30 30" version="1.1" xmlns="http://www.w3.org/2000/svg" xmlns:xlink="http://www.w3.org/1999/xlink">
    <g id="twitter-icon" class="twitter-icon" fill="#262425">
        <path d="M14.9997579,1 C7.26797386,1 1,7.26821593 1,15 C1,22.731542 7.26797386,29.0004841 14.9997579,29.0004841 C22.7317841,29.0004841 29,22.7317841 29,15 C29,7.26821593 22.7317841,1 14.9997579,1 L14.9997579,1 Z M21.8339385,11.5219075 C21.8339385,11.5219075 22.1667877,13.1716291 20.9724038,16.0697168 C19.7775357,18.9678044 16.8208666,21.7092714 12.748245,21.9639313 C8.67538126,22.2183491 6.48172355,20.4168482 6.48172355,20.4168482 C9.53667393,20.6519003 10.8876785,19.3986928 11.6122004,18.9874122 C8.77293634,18.6153474 8.36165577,16.4809973 8.36165577,16.4809973 C8.63568143,16.5986444 9.47760833,16.5594287 9.92810458,16.4420237 C7.14790608,15.7567175 7.08908255,12.9566691 7.08908255,12.9566691 C7.08908255,12.9566691 8.12660373,13.4853546 8.71411281,13.3873154 C6.03122731,11.3507625 7.59816025,8.68772694 7.59816025,8.68772694 C11.1423384,12.5649964 14.9017187,12.3495522 14.9017187,12.3495522 L14.9186638,12.3749697 C14.8503994,12.1019124 14.8136045,11.8162672 14.8136045,11.5221496 C14.8136045,9.58363592 16.3851368,8.01234568 18.3236504,8.01234568 C19.3476156,8.01234568 20.2691842,8.45122246 20.9109175,9.15081094 L20.9331881,9.13822319 C22.1861535,9.05979182 23.1067538,8.39409344 23.1067538,8.39409344 C22.7252481,9.50859356 21.9147906,10.0278383 21.5763738,10.2026144 C21.5807311,10.2130235 21.5848463,10.2234326 21.5887194,10.2335996 C22.0266279,10.127572 23.201404,9.84023239 23.5182764,9.74534011 C22.8324861,10.9983055 21.8339385,11.5219075 21.8339385,11.5219075 L21.8339385,11.5219075 Z"></path>
    </g>
</svg>