<?xml version="1.0" encoding="UTF-8" standalone="no"?>
<svg width="51px" height="119px" viewBox="0 0 51 119" version="1.1" xmlns="http://www.w3.org/2000/svg" xmlns:xlink="http://www.w3.org/1999/xlink">
    <!-- Generator: Sketch 41.2 (35397) - http://www.bohemiancoding.com/sketch -->
    <title>chain</title>
    <desc>Created with Sketch.</desc>
    <defs></defs>
    <g id="Page-1" stroke="none" stroke-width="1" fill="none" fill-rule="evenodd">
        <g id="chain" fill="#262425">
            <path d="M43.6426588,7.77300717 C43.7616588,8.06300717 43.9066588,8.45600717 44.0366588,8.85600717 C44.3066588,9.65000717 44.5766588,10.4440072 44.5766588,10.4440072 C44.8736588,11.3920072 44.4976588,12.3250072 43.6986588,12.7720072 C43.5916588,12.3980072 43.5236588,12.1590072 43.5236588,12.1590072 C43.3086588,11.3730072 42.4646588,10.9560072 41.6706588,11.2170072 C40.8916588,11.4730072 40.4446588,12.2690072 40.6446588,13.0020072 C40.6446588,13.0020072 40.7106588,13.2330072 40.8136588,13.5940072 C39.8856588,13.6630072 39.1276588,13.1240072 38.8616588,12.2720072 C38.8616588,12.2720072 38.6206588,11.5640072 38.3796588,10.8550072 C38.2646588,10.4990072 38.1356588,10.1480072 38.0276588,9.88800717 C37.9256588,9.62600717 37.8566588,9.45200717 37.8566588,9.45200717 C37.8566588,9.45200717 37.5936588,8.75000717 37.3026588,8.05900717 C37.0006588,7.37100717 36.6986588,6.68400717 36.6986588,6.68400717 C36.2726588,5.74100717 36.6506588,4.64400717 37.6906588,4.12000717 L39.5356588,3.20300717 C40.5626588,2.68500717 41.6806588,3.13800717 42.1596588,4.20000717 C42.1596588,4.20000717 42.4966588,4.96500717 42.8326588,5.73100717 C43.1576588,6.50100717 43.4526588,7.28600717 43.4526588,7.28600717 C43.4526588,7.28600717 43.5286588,7.48100717 43.6426588,7.77300717 M46.9656588,23.4310072 C46.9656588,23.4310072 46.9776588,23.6420072 46.9956588,23.9590072 C47.0126588,24.2760072 47.0436588,24.6970072 47.0316588,25.1210072 C47.0256588,25.9680072 47.0196588,26.8140072 47.0196588,26.8140072 C47.0196588,26.8140072 47.0426588,27.6620072 46.9586588,28.5060072 C46.8966588,29.3500072 46.8346588,30.1950072 46.8346588,30.1950072 C46.7776588,31.1960072 46.0266588,31.9060072 45.1146588,32.0030072 C45.1696588,31.6170072 45.2046588,31.3700072 45.2046588,31.3700072 C45.3406588,30.5620072 44.6686588,29.8400072 43.8586588,29.7740072 C43.0176588,29.7050072 42.3546588,30.2660072 42.2256588,31.0130072 C42.2256588,31.0130072 42.1916588,31.2500072 42.1396588,31.6200072 C41.2576588,31.3200072 40.8146588,30.5340072 40.8596588,29.6500072 L40.9676588,28.1740072 C41.0456588,27.4370072 41.0216588,26.6960072 41.0216588,26.6960072 C41.0216588,26.6960072 41.0266588,25.9560072 41.0316588,25.2150072 C41.0456588,24.8450072 41.0156588,24.4750072 40.9996588,24.1980072 C40.9836588,23.9200072 40.9736588,23.7350072 40.9736588,23.7350072 C40.9266588,22.8730072 41.4916588,22.1150072 42.3556588,21.8330072 C42.3626588,21.8920072 42.3716588,21.9650072 42.3776588,22.0160072 C42.3926588,22.2770072 42.4016588,22.4270072 42.4016588,22.4270072 C42.4446588,23.1820072 43.1506588,23.7660072 43.9776588,23.7320072 C44.8056588,23.6970072 45.4396588,23.0070072 45.3926588,22.1910072 C45.3926588,22.1910072 45.3826588,22.0310072 45.3656588,21.7520072 C45.3586588,21.6920072 45.3486588,21.6060072 45.3406588,21.5350072 C46.2716588,21.6430072 46.9106588,22.4080072 46.9656588,23.4310072 M43.8296588,43.0830072 C43.8296588,43.0830072 43.7566588,43.2800072 43.6476588,43.5760072 C43.5306588,43.8690072 43.4106588,44.2760072 43.2276588,44.6540072 C42.8836588,45.4200072 42.5396588,46.1850072 42.5396588,46.1850072 C42.5396588,46.1850072 42.1946588,46.9510072 41.8496588,47.7160072 C41.4746588,48.4640072 41.0706588,49.1960072 41.0706588,49.1960072 C40.6026588,50.0690072 39.6976588,50.4660072 38.8216588,50.2150072 C38.8516588,50.1580072 38.8896588,50.0880072 38.9156588,50.0400072 C39.0476588,49.7950072 39.1226588,49.6540072 39.1226588,49.6540072 C39.5066588,48.9390072 39.2206588,48.0500072 38.4846588,47.6710072 C37.7476588,47.2910072 36.8586588,47.5280072 36.4986588,48.1990072 C36.4986588,48.1990072 36.4276588,48.3320072 36.3036588,48.5650072 C36.2766588,48.6140072 36.2386588,48.6850072 36.2076588,48.7430072 C35.5026588,48.1310072 35.3336588,47.1980072 35.7576588,46.4080072 C35.7576588,46.4080072 36.1226588,45.7510072 36.4586588,45.0820072 C36.7646588,44.4000072 37.0706588,43.7180072 37.0706588,43.7180072 C37.0706588,43.7180072 37.3786588,43.0370072 37.6856588,42.3550072 C37.8516588,42.0190072 37.9516588,41.6590072 38.0566588,41.4000072 C38.1526588,41.1380072 38.2166588,40.9630072 38.2166588,40.9630072 C38.5166588,40.1470072 39.3386588,39.6780072 40.2526588,39.7700072 C40.2316588,39.8260072 40.2096588,39.8970072 40.1906588,39.9450072 C40.0996588,40.1910072 40.0476588,40.3320072 40.0476588,40.3320072 C39.7846588,41.0440072 40.1996588,41.8640072 40.9716588,42.1630072 C41.7446588,42.4620072 42.5996588,42.0840072 42.8806588,41.3180072 C42.8806588,41.3180072 42.9356588,41.1680072 43.0316588,40.9060072 C43.0546588,40.8500072 43.0806588,40.7680072 43.1046588,40.7010072 C43.9036588,41.1720072 44.1826588,42.1260072 43.8296588,43.0830072 M33.8376588,60.0450072 C33.8376588,60.0450072 33.3136588,60.6830072 32.7896588,61.3220072 C32.2776588,61.9720072 31.7146588,62.5710072 31.7146588,62.5710072 L29.4806588,64.9870072 C28.8106588,65.7130072 27.8856588,65.8050072 27.1036588,65.3360072 C27.3636588,65.0590072 27.5196588,64.8940072 27.5196588,64.8940072 C28.0546588,64.3230072 28.0186588,63.3680072 27.4146588,62.8030072 C26.8086588,62.2360072 25.9106588,62.2230072 25.3696588,62.8010072 C25.3696588,62.8010072 25.2046588,62.9770072 24.9266588,63.2720072 C24.4006588,62.5020072 24.5386588,61.5000072 25.1456588,60.8380072 L27.2226588,58.5940072 C27.2226588,58.5940072 27.7466588,58.0370072 28.2156588,57.4390072 C28.6986588,56.8500072 29.1806588,56.2620072 29.1806588,56.2620072 C29.7436588,55.5740072 30.6856588,55.3900072 31.5176588,55.7720072 C31.2866588,56.0710072 31.1386588,56.2410072 31.1386588,56.2410072 C30.6506588,56.8350072 30.7746588,57.7430072 31.4146588,58.2690072 C32.0546588,58.7940072 32.9886588,58.7150072 33.4996588,58.0920072 C33.4996588,58.0920072 33.6586588,57.9090072 33.9066588,57.5850072 C34.5126588,58.2920072 34.4706588,59.2710072 33.8376588,60.0450072 M21.4606588,74.1150072 C21.4606588,74.1150072 20.9886588,74.7190072 20.5156588,75.3230072 C20.0536588,75.9330072 19.6246588,76.5640072 19.6246588,76.5640072 C19.6246588,76.5640072 19.1836588,77.1870072 18.7436588,77.8110072 C18.5236588,78.1230072 18.3036588,78.4350072 18.1376588,78.6690072 C17.9856588,78.9100072 17.8846588,79.0710072 17.8846588,79.0710072 C17.4086588,79.8240072 16.5056588,80.1120072 15.6396588,79.8130072 C15.8376588,79.5010072 15.9636588,79.3020072 15.9636588,79.3020072 C16.3736588,78.6530072 16.1476588,77.7540072 15.4586588,77.2950072 C14.7696588,76.8350072 13.8606588,77.0150072 13.4296588,77.6970072 C13.4296588,77.6970072 13.3006588,77.9010072 13.0826588,78.2450072 C12.4116588,77.6020072 12.3396588,76.6130072 12.8736588,75.7710072 C12.8736588,75.7710072 12.9836588,75.5960072 13.1496588,75.3340072 C13.3276588,75.0820072 13.5646588,74.7450072 13.8016588,74.4080072 C14.2766588,73.7360072 14.7516588,73.0640072 14.7516588,73.0640072 C14.7516588,73.0640072 15.2166588,72.3830072 15.7116588,71.7280072 C16.2166588,71.0810072 16.7216588,70.4350072 16.7216588,70.4350072 C17.3186588,69.6720072 18.2716588,69.4430072 19.0936588,69.8370072 C19.0546588,69.8870072 19.0066588,69.9490072 18.9726588,69.9910072 C18.8026588,70.2080072 18.7056588,70.3320072 18.7056588,70.3320072 C18.2116588,70.9650072 18.3426588,71.8870072 18.9996588,72.3930072 C19.6556588,72.8980072 20.5736588,72.8140072 21.0486588,72.2070072 C21.0486588,72.2070072 21.1426588,72.0870072 21.3066588,71.8770072 C21.3416588,71.8320072 21.3916588,71.7680072 21.4326588,71.7150072 C22.0256588,72.4350072 22.0256588,73.3920072 21.4606588,74.1150072 M12.3076588,89.5370072 C12.3076588,89.5370072 11.9926588,90.2210072 11.7616588,90.9310072 C11.5106588,91.6360072 11.2596588,92.3400072 11.2596588,92.3400072 C11.2596588,92.3400072 10.9966588,93.0400072 10.8066588,93.7600072 C10.5976588,94.4740072 10.3896588,95.1890072 10.3896588,95.1890072 C10.1596588,96.0270072 9.42665875,96.5830072 8.51165875,96.5830072 C8.59265875,96.2270072 8.64465875,96.0000072 8.64465875,96.0000072 C8.79765875,95.2580072 8.32965875,94.4910072 7.53365875,94.2700072 C6.73265875,94.0490072 5.89365875,94.5020072 5.72665875,95.3030072 C5.72665875,95.3030072 5.66965875,95.5530072 5.58065875,95.9440072 C4.73765875,95.5540072 4.32565875,94.6200072 4.59365875,93.6370072 C4.59365875,93.6370072 4.82965875,92.8280072 5.06465875,92.0190072 C5.28365875,91.2040072 5.57665875,90.4170072 5.57665875,90.4170072 C5.57665875,90.4170072 5.85765875,89.6270072 6.13965875,88.8360072 C6.40365875,88.0370072 6.74965875,87.2770072 6.74965875,87.2770072 C7.13465875,86.3650072 8.00065875,85.8830072 8.89765875,86.0480072 C8.87265875,86.1080072 8.84165875,86.1810072 8.81965875,86.2310072 C8.71165875,86.4880072 8.64965875,86.6340072 8.64965875,86.6340072 C8.33265875,87.3820072 8.70165875,88.2370072 9.47065875,88.5440072 C10.2406588,88.8500072 11.1056588,88.5300072 11.4016588,87.8280072 C11.4016588,87.8280072 11.4606588,87.6890072 11.5626588,87.4460072 C11.5846588,87.3940072 11.6166588,87.3200072 11.6416588,87.2600072 C12.4016588,87.8000072 12.6576588,88.7110072 12.3076588,89.5370072 M8.99665875,106.656007 C8.99665875,106.656007 8.99965875,106.839007 9.00465875,107.114007 C9.02365875,107.388007 9.04865875,107.753007 9.07465875,108.119007 C9.10065875,108.484007 9.12565875,108.849007 9.14565875,109.123007 C9.17965875,109.396007 9.20265875,109.577007 9.20265875,109.577007 C9.20265875,109.577007 9.29365875,110.303007 9.38465875,111.029007 C9.51365875,111.749007 9.64165875,112.469007 9.64165875,112.469007 C9.83865875,113.453007 9.21965875,114.422007 8.09165875,114.714007 L6.09365875,115.214007 C4.97965875,115.503007 3.98865875,114.795007 3.75365875,113.623007 C3.75365875,113.623007 3.60365875,112.780007 3.45465875,111.938007 C3.34665875,111.090007 3.23965875,110.241007 3.23965875,110.241007 C3.23965875,110.241007 3.21365875,110.029007 3.17465875,109.711007 C3.15065875,109.391007 3.11965875,108.965007 3.08865875,108.539007 C3.05965875,108.113007 3.03165875,107.687007 3.00965875,107.367007 C3.00365875,107.047007 2.99865875,106.834007 2.99865875,106.834007 C2.98765875,105.820007 3.58565875,105.019007 4.48465875,104.820007 C4.47665875,105.214007 4.48265875,105.465007 4.48265875,105.465007 C4.49165875,106.287007 5.17165875,106.927007 5.99965875,106.894007 C6.82665875,106.861007 7.49165875,106.224007 7.48265875,105.472007 C7.48265875,105.472007 7.47665875,105.235007 7.48365875,104.865007 C8.38665875,105.064007 8.98965875,105.784007 8.99665875,106.656007 M38.1836588,0.635007173 L36.3866588,1.64200717 C33.9526588,3.05000717 32.9896588,5.79100717 33.9676588,7.92600717 C33.9676588,7.92600717 34.2526588,8.57400717 34.5376588,9.22300717 C34.8116588,9.87400717 35.0596588,10.5350072 35.0596588,10.5350072 C35.0596588,10.5350072 35.1236588,10.6990072 35.2206588,10.9450072 C35.3226588,11.1900072 35.4436588,11.5210072 35.5506588,11.8550072 C35.7776588,12.5210072 36.0046588,13.1860072 36.0046588,13.1860072 C36.3356588,14.3150072 37.1686588,15.1770072 38.1916588,15.7370072 C39.1156588,16.2290072 40.2726588,16.4450072 41.4866588,16.2810072 C41.5896588,16.7320072 41.6906588,17.1980072 41.7636588,17.6740072 C41.8486588,18.1520072 41.9306588,18.6200072 42.0116588,19.0790072 C40.8506588,19.3690072 39.8666588,19.9800072 39.1526588,20.7590072 C38.7526588,21.2040072 38.4476588,21.6990072 38.2606588,22.2240072 C38.0636588,22.7510072 37.9386588,23.3090072 37.9776588,23.8880072 C37.9776588,23.8880072 37.9876588,24.0600072 38.0026588,24.3170072 C38.0176588,24.5750072 38.0466588,24.9190072 38.0326588,25.2620072 C38.0276588,25.9500072 38.0216588,26.6370072 38.0216588,26.6370072 C38.0776588,26.6400072 37.8726588,29.3780072 37.8726588,29.3780072 C37.7956588,30.5290072 38.1096588,31.6140072 38.8946588,32.5370072 C39.5706588,33.3540072 40.5076588,34.0060072 41.6856588,34.3420072 C41.5886588,34.7930072 41.4856588,35.2570072 41.3886588,35.7280072 C41.2956588,36.2020072 41.1716588,36.6640072 41.0446588,37.1100072 C39.8556588,36.9040072 38.6976588,37.0620072 37.7516588,37.4950072 C37.2036588,37.7410072 36.7606588,38.0810072 36.3476588,38.4800072 C35.9326588,38.8790072 35.6116588,39.3530072 35.4096588,39.9040072 C35.4096588,39.9040072 35.3506588,40.0670072 35.2606588,40.3120072 C35.1626588,40.5550072 35.0716588,40.8900072 34.9146588,41.2060072 C34.6256588,41.8450072 34.3366588,42.4840072 34.3366588,42.4840072 C34.3366588,42.4840072 34.0496588,43.1240072 33.7636588,43.7650072 C33.4466588,44.3940072 33.1016588,45.0140072 33.1016588,45.0140072 C32.1096588,46.9930072 32.6806588,49.5320072 34.7566588,51.1160072 C34.5096588,51.5110072 34.2546588,51.9180072 33.9966588,52.3300072 C33.7116588,52.7270072 33.4306588,53.1190072 33.1576588,53.4990072 C32.1136588,52.9010072 30.9726588,52.6600072 29.9246588,52.7670072 C29.3256588,52.8290072 28.7596588,53.0000072 28.2536588,53.2750072 C27.7176588,53.5330072 27.2406588,53.8970072 26.8516588,54.3710072 C26.8516588,54.3710072 26.3906588,54.9340072 25.9286588,55.4970072 C25.4816588,56.0700072 24.9756588,56.6050072 24.9756588,56.6050072 L22.9786588,58.7630072 C22.7676588,58.9920072 22.5926588,59.2320072 22.4326588,59.4980072 C22.2516588,59.7840072 22.1006588,60.0810072 21.9806588,60.3860072 C21.7416588,60.9960072 21.6266588,61.6350072 21.6396588,62.2670072 C21.6626588,63.3940072 22.1166588,64.4830072 22.9476588,65.3790072 C22.6166588,65.7330072 22.2786588,66.1000072 21.9486588,66.4820072 C21.6236588,66.8600072 21.3026588,67.2330072 20.9916588,67.5960072 C18.9026588,66.1020072 15.9886588,66.4330072 14.3526588,68.5950072 C14.3526588,68.5950072 13.8316588,69.2630072 13.3096588,69.9310072 C12.7976588,70.6070072 12.3146588,71.3130072 12.3146588,71.3130072 C12.3146588,71.3130072 11.8226588,72.0100072 11.3306588,72.7070072 C11.0856588,73.0560072 10.8396588,73.4050072 10.6556588,73.6670072 C10.4836588,73.9390072 10.3676588,74.1200072 10.3676588,74.1200072 C9.59465875,75.3460072 9.33865875,76.7250072 9.62165875,77.9660072 C9.89265875,79.0920072 10.5826588,80.0620072 11.5936588,80.7520072 C11.3566588,81.1790072 11.1126588,81.6190072 10.8606588,82.0610072 C10.6186588,82.5000072 10.3946588,82.9430072 10.1806588,83.3750072 C7.80065875,82.4260072 5.02165875,83.5210072 3.97065875,86.1460072 C3.97065875,86.1460072 3.60865875,86.9450072 3.32865875,87.7880072 C3.03165875,88.6220072 2.73465875,89.4560072 2.73465875,89.4560072 C2.73465875,89.4560072 2.42665875,90.2850072 2.19365875,91.1490072 L1.69565875,92.8610072 C1.31565875,94.3190072 1.54365875,95.7780072 2.22465875,96.8760072 C2.85665875,97.8700072 3.83665875,98.5460072 5.02365875,98.8390072 C4.94565875,99.3270072 4.86965875,99.8300072 4.80565875,100.341007 C4.75265875,100.849007 4.70065875,101.345007 4.64965875,101.833007 C3.43965875,101.841007 2.31565875,102.281007 1.49965875,103.091007 C1.02865875,103.548007 0.640658753,104.118007 0.363658753,104.769007 C0.116658753,105.421007 -0.0103412473,106.155007 0.000658752685,106.923007 C0.000658752685,106.923007 0.00465875269,107.152007 0.0126587527,107.494007 C0.0356587527,107.836007 0.0656587527,108.293007 0.0966587527,108.749007 C0.129658753,109.206007 0.163658753,109.662007 0.188658753,110.004007 C0.230658753,110.346007 0.257658753,110.573007 0.257658753,110.573007 C0.257658753,110.573007 0.373658753,111.483007 0.488658753,112.392007 C0.649658753,113.296007 0.809658753,114.200007 0.809658753,114.200007 C1.11365875,115.720007 1.97565875,116.954007 3.10265875,117.637007 C4.20565875,118.334007 5.59465875,118.470007 6.91565875,118.026007 L8.87065875,117.376007 C10.2146588,116.925007 11.2066588,116.065007 11.8766588,115.079007 C12.5186588,114.094007 12.8076588,112.991007 12.5856588,111.891007 C12.5856588,111.891007 12.4676588,111.233007 12.3506588,110.575007 C12.2676588,109.910007 12.1836588,109.245007 12.1836588,109.245007 C12.1836588,109.245007 12.1626588,109.079007 12.1316588,108.830007 C12.1136588,108.579007 12.0906588,108.244007 12.0666588,107.909007 C12.0436588,107.574007 12.0196588,107.239007 12.0016588,106.987007 C11.9976588,106.735007 11.9946588,106.567007 11.9946588,106.567007 C11.9906588,105.999007 11.8476588,105.464007 11.5996588,104.964007 C11.3816588,104.464007 11.0486588,104.001007 10.6246588,103.592007 C9.85465875,102.865007 8.83965875,102.320007 7.63565875,102.115007 C7.68365875,101.656007 7.73265875,101.187007 7.78365875,100.708007 C7.84365875,100.231007 7.91365875,99.7590072 7.98765875,99.3020072 C9.18865875,99.3820072 10.3186588,99.1050072 11.2026588,98.5810072 C12.2426588,97.9820072 12.9966588,97.0910072 13.2876588,95.9650072 C13.2876588,95.9650072 13.4826588,95.2980072 13.6776588,94.6300072 C13.8526588,93.9590072 14.1016588,93.3010072 14.1016588,93.3010072 C14.1016588,93.3010072 14.3376588,92.6400072 14.5726588,91.9790072 C14.7876588,91.3130072 15.0866588,90.6670072 15.0866588,90.6670072 C15.9016588,88.6080072 15.0666588,86.1260072 12.8466588,84.7520072 C13.0526588,84.3340072 13.2696588,83.9050072 13.5046588,83.4790072 C13.7466588,83.0550072 13.9806588,82.6330072 14.2086588,82.2240072 C15.3056588,82.7180072 16.4606588,82.8420072 17.4836588,82.6260072 C18.6766588,82.3890072 19.7416588,81.7580072 20.3896588,80.7210072 C20.3896588,80.7210072 20.4866588,80.5670072 20.6316588,80.3360072 C20.7906588,80.1120072 21.0026588,79.8120072 21.2146588,79.5120072 C21.6376588,78.9130072 22.0606588,78.3140072 22.0606588,78.3140072 C22.0606588,78.3140072 22.4726588,77.7080072 22.9176588,77.1200072 C23.3736588,76.5380072 23.8296588,75.9560072 23.8296588,75.9560072 C25.2306588,74.0940072 25.0726588,71.4330072 23.2486588,69.5710072 C23.5556588,69.2140072 23.8716588,68.8460072 24.1916588,68.4740072 C24.5126588,68.1020072 24.8426588,67.7440072 25.1656588,67.3990072 C26.1266588,68.1270072 27.2356588,68.5060072 28.3116588,68.5130072 C28.9236588,68.5170072 29.5236588,68.4060072 30.0766588,68.1800072 C30.3536588,68.0670072 30.6186588,67.9250072 30.8686588,67.7540072 C31.1376588,67.5610072 31.4046588,67.3220072 31.6476588,67.0610072 L33.9606588,64.5600072 C33.9606588,64.5600072 34.5426588,63.9390072 35.0766588,63.2630072 C35.6216588,62.5990072 36.1666588,61.9360072 36.1666588,61.9360072 C36.6256588,61.3770072 36.9566588,60.7620072 37.1556588,60.1330072 C37.3316588,59.4800072 37.3746588,58.8130072 37.2906588,58.1760072 C37.1416588,57.0350072 36.5546588,56.0040072 35.6146588,55.2190072 C35.8986588,54.8220072 36.1926588,54.4130072 36.4886588,54.0000072 C36.7556588,53.5740072 37.0186588,53.1540072 37.2746588,52.7450072 C39.5516588,53.9210072 42.4446588,53.1130072 43.7266588,50.5900072 C43.7266588,50.5900072 44.1506588,49.8210072 44.5446588,49.0330072 C44.9096588,48.2260072 45.2746588,47.4190072 45.2746588,47.4190072 C45.2746588,47.4190072 45.6366588,46.6110072 45.9986588,45.8030072 C46.1906588,45.4050072 46.3196588,44.9740072 46.4436588,44.6650072 C46.5596588,44.3510072 46.6366588,44.1420072 46.6366588,44.1420072 C46.8966588,43.4390072 47.0166588,42.7230072 47.0056588,42.0430072 C46.9936588,41.3620072 46.7906588,40.6910072 46.5076588,40.1110072 C45.9906588,39.0660072 45.0926588,38.2940072 43.9436588,37.8800072 C44.0786588,37.4060072 44.2096588,36.9150072 44.3106588,36.4110072 C44.4146588,35.9050072 44.5256588,35.4070072 44.6296588,34.9230072 C45.8266588,35.0440072 47.0026588,34.7590072 47.9066588,34.0580072 C48.9076588,33.2610072 49.7126588,31.9830072 49.8226588,30.4670072 C49.8226588,30.4670072 49.8886588,29.5690072 49.9536588,28.6710072 C50.0406588,27.7740072 50.0196588,26.8730072 50.0196588,26.8730072 C50.0196588,26.8730072 50.0256588,25.9740072 50.0306588,25.0740072 C50.0436588,24.6240072 50.0106588,24.1760072 49.9926588,23.8390072 C49.9746588,23.5030072 49.9616588,23.2790072 49.9616588,23.2790072 C49.9136588,22.5240072 49.7566588,21.8120072 49.4506588,21.1920072 C49.1346588,20.5730072 48.7156588,20.0390072 48.2206588,19.6200072 C47.3486588,18.8690072 46.2026588,18.5270072 44.9756588,18.6140072 C44.8896588,18.1270072 44.8026588,17.6310072 44.7126588,17.1230072 C44.6326588,16.6140072 44.5256588,16.1160072 44.4156588,15.6340072 C45.5596588,15.2660072 46.4886588,14.5440072 47.0636588,13.5420072 C47.7326588,12.4010072 47.8616588,10.9610072 47.4336588,9.52900717 C47.4336588,9.52900717 47.1496588,8.69200717 46.8646588,7.85600717 C46.7276588,7.43500717 46.5746588,7.02100717 46.4496588,6.71600717 C46.3296588,6.40800717 46.2496588,6.20200717 46.2496588,6.20200717 C46.2496588,6.20200717 45.9386588,5.37700717 45.5976588,4.56700717 C45.2436588,3.76200717 44.8906588,2.95800717 44.8906588,2.95800717 C43.6406588,0.234007173 40.6166588,-0.773992827 38.1836588,0.635007173" id="chain-group"></path>
        </g>
    </g>
</svg>