<?xml version="1.0" encoding="UTF-8" standalone="no"?>
<svg width="308px" height="311px" viewBox="0 0 308 311" version="1.1" xmlns="http://www.w3.org/2000/svg" xmlns:xlink="http://www.w3.org/1999/xlink">
    <!-- Generator: Sketch 41.2 (35397) - http://www.bohemiancoding.com/sketch -->
    <title>polkadots-blue</title>
    <desc>Created with Sketch.</desc>
    <defs>
        <polygon id="path-1" points="25.3280199 0.444 0.9395 0.444 0.9395 34.3595996 25.3280199 34.3595996 25.3280199 0.444"></polygon>
        <polygon id="path-3" points="40.141 33.8877572 40.141 0.8182 0.9392 0.8182 0.9392 33.8877572 40.141 33.8877572"></polygon>
        <polygon id="path-5" points="0.9399 52 35.3404476 52 35.3404476 0.8187 0.9399 0.8187 0.9399 52"></polygon>
    </defs>
    <g id="Page-1" stroke="none" stroke-width="1" fill="none" fill-rule="evenodd">
        <g id="polkadots-blue">
            <g id="Page-1" transform="translate(25.000000, 25.000000)">
                <path d="M50.4334,26.8916 C50.9394,30.3746 51.9394,34.3746 49.9394,36.3746 C40.9394,44.3746 27.9394,41.3746 18.9394,35.3746 C15.9394,32.3746 14.9394,28.3746 13.9394,24.3746 C13.9394,21.3746 14.9394,18.3746 15.9394,16.3746 C18.9394,12.3746 21.9394,10.3746 26.9394,9.3746 L32.9394,9.3746 C38.9394,11.3746 43.9394,14.3746 46.8494,19.7216 C48.3244,21.8796 49.5974,24.3316 50.4334,26.8916" id="Fill-1" fill="#0000FF"></path>
                <path d="M106.9096,21.6353 C107.9396,29.3743 110.9396,37.3743 108.9396,45.3743 C104.9396,54.3743 92.9396,50.3743 86.9396,45.3743 C78.9396,38.3743 73.9396,29.3743 72.9396,19.3743 C72.9396,16.3743 74.9396,13.3743 77.9396,11.3743 C85.9396,6.3743 95.9396,9.3743 102.7716,14.8033 C104.4326,16.6043 105.7806,18.8943 106.9096,21.6353" id="Fill-3" fill="#0000FF"></path>
                <g id="Group-7" transform="translate(125.000000, 0.556000)">
                    <mask id="mask-2" fill="white">
                        <use xlink:href="#path-1"></use>
                    </mask>
                    <g id="Clip-6"></g>
                    <path d="M25.1855,19.3284 C24.9395,21.8184 24.9395,23.8184 23.9395,25.8184 C18.9395,32.8184 8.9395,38.8184 3.9395,29.8184 C0.9395,23.8184 1.9395,16.8184 0.9395,10.8184 C0.9395,7.8184 3.9395,5.8184 4.9395,3.8184 C6.9395,0.8184 10.9395,-0.1816 13.9395,0.8184 C17.9395,1.8184 20.9395,3.8184 22.7745,7.4584 C24.7535,10.7104 25.7115,14.9224 25.1855,19.3284" id="Fill-5" fill="#0000FF" mask="url(#mask-2)"></path>
                </g>
                <path d="M194.503,24.6698 C194.378,28.5698 192.674,32.2668 189.96,34.9808 C187.245,37.6958 183.495,39.3748 179.353,39.3748 C175.211,39.3748 171.467,37.6898 168.889,34.8938 C164.94,28.3748 162.94,19.3748 168.94,13.3748 C172.94,9.3748 178.94,7.3748 184.94,10.3748 C186.94,11.3748 188.94,12.3748 190.157,14.1428 C192.963,17.0348 194.628,20.7698 194.503,24.6698" id="Fill-8" fill="#0000FF"></path>
                <g id="Group-12" transform="translate(217.000000, 32.556000)">
                    <mask id="mask-4" fill="white">
                        <use xlink:href="#path-3"></use>
                    </mask>
                    <g id="Clip-11"></g>
                    <path d="M39.8442,26.2892 C40.9392,29.8182 38.9392,32.8182 34.9392,33.8182 C23.9392,34.8182 15.9392,24.8182 7.9392,17.8182 C3.9392,14.8182 2.9392,9.8182 0.9392,5.8182 C0.9392,3.8182 0.9392,1.8182 1.9392,0.8182 C14.9392,0.8182 23.9392,10.8182 35.2242,16.6532 C37.8782,18.6982 39.5742,21.9902 39.8442,26.2892" id="Fill-10" fill="#0000FF" mask="url(#mask-4)"></path>
                </g>
                <path d="M83.9432,82.9193 C70.9392,86.3743 52.9392,97.3743 41.9392,82.3743 C39.9392,79.3743 39.9392,75.3743 41.9392,72.3743 C50.9392,61.3743 66.9392,66.3743 77.9392,71.3743 C79.9392,72.3743 83.9392,73.3743 86.2092,76.1393 C88.5102,78.7303 87.7212,81.0613 83.9432,82.9193" id="Fill-13" fill="#0000FF"></path>
                <path d="M137.5188,86.4167 C136.6338,96.1467 123.6338,99.1467 115.2928,97.1177 C112.8778,96.3827 111.1898,94.8747 110.9398,92.3747 C110.9398,90.8747 111.7518,88.9367 113.1178,86.8997 C118.6338,81.1467 124.6338,74.1467 133.5918,75.6157 C135.6668,78.1297 137.3528,82.1057 137.5188,86.4167" id="Fill-15" fill="#0000FF"></path>
                <path d="M173.1081,79.4984 C174.6341,87.1464 177.6341,101.1464 168.6341,102.1464 C155.6341,103.1464 147.6341,85.1464 148.6341,72.1464 C149.6341,68.1464 149.6341,63.1464 154.6341,61.1464 C162.6341,59.1464 166.6341,65.1464 169.9971,71.2824 C171.2011,73.6604 172.2671,76.4174 173.1081,79.4984" id="Fill-17" fill="#0000FF"></path>
                <path d="M220.8628,77.4781 C220.5358,80.8951 218.3188,83.5721 215.2818,85.7411 C208.6338,94.1461 196.6338,95.1461 192.6338,84.1461 C190.6338,79.1461 190.6338,74.1461 190.6338,69.1461 C190.6338,67.1461 191.6338,65.1461 193.7588,63.8721 C196.4608,61.0531 200.2248,59.4091 204.5558,59.8481 C208.9398,60.3741 212.9398,63.3741 216.1968,66.4661 C219.3428,70.0371 221.1898,74.0611 220.8628,77.4781" id="Fill-19" fill="#0000FF"></path>
                <path d="M43.5484,123.8768 C39.9394,134.3748 28.9394,143.3748 18.7464,134.9808 C16.0324,132.2668 14.3534,128.5168 14.3534,124.3748 C14.3534,116.0898 21.0694,109.3748 29.3534,109.3748 C33.4954,109.3748 37.2454,111.0538 39.9594,113.7678 C42.6744,116.4828 44.1584,120.1118 43.5484,123.8768" id="Fill-21" fill="#0000FF"></path>
                <path d="M94.342,124.3676 C90.94,136.3746 73.94,138.3746 64.94,133.3746 C62.94,131.3746 61.94,128.3746 61.94,126.3746 C62.94,121.3746 63.94,116.3746 68.728,113.7566 C71.843,111.0716 75.891,109.7226 79.867,109.7326 C83.842,109.7416 87.744,111.1086 90.548,113.8426 C93.062,116.5226 94.449,120.2406 94.342,124.3676" id="Fill-23" fill="#0000FF"></path>
                <path d="M149.2894,128.8849 C144.6344,135.1459 137.6344,139.1459 129.4454,139.0459 C125.6414,139.0259 121.8434,137.6779 118.7474,134.9809 C116.9394,133.3749 115.9394,131.3749 114.9394,128.3749 C114.4394,125.6249 114.8144,123.2499 115.8024,121.2239 C122.6344,110.1459 139.6344,112.1459 147.3074,120.4539 C149.7764,123.0939 150.5764,126.0689 149.2894,128.8849" id="Fill-25" fill="#0000FF"></path>
                <path d="M195.8458,128.5384 C194.6338,138.1464 183.6338,143.1464 174.6338,141.1464 C171.6338,139.1464 168.6338,136.1464 170.6338,132.1464 C174.6338,126.1464 180.6338,123.1464 186.6338,120.1464 C188.6338,120.1464 191.6338,119.1464 194.0948,121.3014 C195.7878,122.7644 196.5238,125.3284 195.8458,128.5384" id="Fill-27" fill="#0000FF"></path>
                <path d="M244.4675,124.6678 C242.6335,138.1458 229.6335,143.1458 218.6335,136.1458 C215.6335,134.1458 213.6335,131.1458 212.6335,128.1458 C210.6335,123.1458 214.6335,118.1458 217.6335,114.1458 C221.6335,109.1458 229.6335,109.1458 235.6335,111.1458 C237.6335,112.1458 239.6335,113.1458 240.4385,114.7408 C243.1345,117.3488 244.6425,120.7858 244.4675,124.6678" id="Fill-29" fill="#0000FF"></path>
                <path d="M18.7672,213.4073 C16.9402,219.3743 14.9402,235.3743 5.9402,228.3743 C-1.0598,223.3743 -2.0598,212.3743 3.9402,205.3743 C5.9402,202.3743 9.9402,202.3743 12.9402,201.3743 C15.9402,201.3743 17.9402,203.3743 19.4502,204.9863 C20.2762,207.0113 19.9032,209.8733 18.7672,213.4073" id="Fill-31" fill="#0000FF"></path>
                <path d="M92.0757,224.7582 C92.9397,232.3742 85.9397,236.3742 79.5867,237.0582 C77.2847,237.4032 74.8367,237.4492 72.3897,237.2392 C67.4957,236.8192 62.6067,235.3742 58.9397,233.3742 C54.9397,231.3742 49.9397,230.3742 47.9397,226.3742 C46.9397,223.3742 42.9397,221.3742 44.9397,218.3742 C52.2727,210.3742 65.8287,204.5972 76.5507,206.9342 C79.2317,207.5192 81.7347,208.6102 83.9197,210.2992 C86.1027,211.9972 87.9557,214.3792 89.3557,217.5742 C90.7467,219.9132 91.6977,222.3592 92.0757,224.7582" id="Fill-33" fill="#0000FF"></path>
                <g id="Group-37" transform="translate(107.000000, 208.556000)">
                    <mask id="mask-6" fill="white">
                        <use xlink:href="#path-5"></use>
                    </mask>
                    <g id="Clip-36"></g>
                    <path d="M34.9629,29.7927 C36.9399,38.8187 30.9399,53.8187 21.9399,51.8187 C3.9399,46.8187 2.9399,22.8187 0.9399,5.8187 C0.9399,3.8187 1.9399,0.8187 3.9399,0.8187 C15.9399,0.8187 21.9399,13.8187 29.6089,21.0827 C31.9769,23.9377 33.8059,26.8237 34.9629,29.7927" id="Fill-35" fill="#0000FF" mask="url(#mask-6)"></path>
                </g>
                <path d="M191.5983,223.8816 C193.2883,228.2556 192.3523,232.1736 189.8033,234.9346 C187.2453,237.6956 183.4953,239.3746 179.3453,239.5636 C166.9393,240.3746 158.9393,228.3746 157.9393,217.3746 C157.9393,214.3746 158.9393,212.3746 160.9393,210.3746 C167.9393,206.3746 174.9393,211.3746 181.5573,214.6046 C183.4303,215.6206 185.2603,216.7026 187.0343,217.8116 C189.1253,219.6426 190.7533,221.6946 191.5983,223.8816" id="Fill-38" fill="#0000FF"></path>
                <path d="M244.3532,224.3745 C244.3532,232.6585 237.6372,239.3745 229.3532,239.3745 C225.2112,239.3745 221.4612,237.6955 218.5902,234.9345 C212.9402,228.3745 207.9402,216.3745 216.9402,210.3745 C218.9402,209.3745 220.9402,208.3745 222.9402,208.3745 C228.9402,208.3745 233.9402,209.3745 239.3802,213.5965 C242.5752,216.4535 244.3532,220.2325 244.3532,224.3745" id="Fill-40" fill="#0000FF"></path>
                <path d="M51.6317,163.3264 C51.7087,165.0884 51.8917,167.3474 51.9657,169.7294 C52.0407,172.1114 52.0067,174.6154 51.5357,176.8684 C51.9397,180.3744 48.9397,183.3744 45.9397,184.3744 C39.9397,186.3744 34.9397,180.3744 34.6377,174.8374 C34.0507,172.3644 33.8777,169.6244 34.0957,166.9374 C34.3147,164.2494 34.9397,161.6244 35.9397,159.3744 C36.9397,157.3744 37.9397,154.3744 39.9397,153.3744 C41.9397,152.3744 43.9397,151.3744 45.9397,151.3744 C46.9397,151.3744 47.9397,152.3744 48.6077,153.5314 C50.0847,155.4604 51.0707,158.8024 51.6317,163.3264" id="Fill-42" fill="#0000FF"></path>
                <path d="M85.2657,162.2663 C78.9397,165.3743 79.9397,177.3743 71.9397,175.3743 C63.9397,174.3743 59.9397,161.3743 66.9397,155.3743 C73.9397,150.3743 85.9397,147.3743 92.5737,155.5143 C91.8717,157.3363 88.9107,159.5433 85.2657,162.2663" id="Fill-44" fill="#0000FF"></path>
                <path d="M134.1003,172.3345 C132.4073,173.8415 130.5513,175.3465 128.5973,176.7355 C126.6433,178.1245 124.5913,179.3965 122.5053,180.4415 C118.9393,181.3745 114.9393,183.3745 110.0933,182.9655 C108.1283,182.6145 106.2563,181.8005 104.5423,180.4065 C102.8283,179.0135 101.2733,177.0415 99.9393,174.3745 C98.9393,172.3745 99.9393,170.3745 100.9393,169.3745 C113.9393,161.3745 128.9393,157.3745 142.9393,159.3745 C144.9393,160.3745 145.9393,161.3745 144.4233,163.4165 C143.4113,165.9095 139.4463,169.0125 134.1003,172.3345" id="Fill-46" fill="#0000FF"></path>
                <path d="M210.6949,172.5374 C206.6339,178.1464 200.6339,183.1464 193.5899,185.1524 C189.8729,186.4584 185.9729,187.3544 182.2149,187.7974 C170.9399,189.1244 160.9399,186.3744 160.9399,178.3744 C160.9399,176.2084 161.8049,174.0254 163.3639,171.8924 C172.6339,157.1464 192.6339,154.1464 207.8999,161.6224 C210.6859,164.5624 211.9269,168.4414 210.6949,172.5374" id="Fill-48" fill="#0000FF"></path>
            </g>
        </g>
    </g>
</svg>